<svg id="log" width="610" height="754" viewBox="0 0 610 754" fill="none" xmlns="http://www.w3.org/2000/svg">
<path d="M230.71 35.0184C240.449 37.7486 249.492 35.6693 257.478 31.5778C268.56 25.9002 278.8 18.5919 289.476 12.1068C303.975 3.29982 317.694 2.48944 333.008 11.3797C349.271 20.821 365.352 31.2693 384.272 34.4838C394.706 36.2566 405.496 35.6843 415.944 32.6114C429.911 28.5036 441.974 21.3394 452.963 11.7895C460.557 5.19007 469.607 1.23138 480.121 0.998273C489.693 0.786065 499.02 1.19259 507.036 7.07766C513.05 11.4937 518.527 16.6479 524.581 21.0033C536.479 29.5619 550.161 32.9514 564.505 35.2044C578.788 37.4478 591.749 34.235 604.538 28.8288C608.067 27.3367 609.017 28.5388 609.01 31.8404C608.987 42.6727 609.439 53.5355 608.693 64.3161C608.506 67.0023 604.951 70.2012 602.164 71.8309C590.608 78.5889 578.035 82.3422 564.557 80.8996C551.875 79.5422 540.257 74.9857 530.775 66.1547C520.819 56.8829 509.801 49.3211 496.219 47.1743C476.806 44.1062 458.499 47.7053 442.71 59.9241C432.371 67.9255 422.41 76.277 409.243 79.3023C396.585 82.2105 383.88 82.5132 372.227 76.439C361.325 70.7558 351.172 63.6373 340.681 57.1647C332.542 52.1436 323.913 48.9616 314.228 47.8664C293.238 45.4928 276.066 53.8232 259.824 65.608C250.045 72.7031 239.436 78.7101 227.496 80.5441C215.875 82.3291 204.254 80.8079 193.198 75.7488C183.871 71.4804 176.645 64.5622 168.815 58.3391C160.31 51.5785 150.428 48.5817 139.74 46.8252C125.824 44.5381 113.072 48.1054 100.749 53.2868C94.5059 55.9117 88.8051 60.4062 83.6673 64.9659C69.8892 77.1938 53.7939 82.532 35.8134 80.7902C23.3883 79.5866 12.3761 73.5447 2.15341 66.4611C1.04196 65.6909 0.180326 63.7441 0.165911 62.3331C0.0211886 48.1693 0.0499815 34.0031 0.12544 19.8382C0.132298 18.5511 0.803511 17.2676 1.31933 15.4398C11.5405 22.8752 21.6115 29.0154 33.2431 32.0522C56.3484 38.0845 78.4863 36.2347 99.0318 23.3729C105.445 19.3579 111.331 14.5032 117.493 10.0812C125.377 4.42342 133.84 0.949525 143.89 0.938554C153.718 0.927827 162.888 2.03082 170.842 8.34806C176.803 13.0823 182.556 18.1598 188.913 22.2973C201.403 30.4251 215.005 35.5209 230.71 35.0184Z" fill="#FEFEFE"/>
<path d="M562.315 101.087C577.252 101.797 591.337 100.188 604.625 94.0082C608.46 92.2243 609.071 93.9964 609.037 97.3558C608.937 107.187 609.116 117.023 608.892 126.85C608.853 128.537 607.821 130.985 606.489 131.736C594.877 138.289 582.56 143.387 569.029 142.851C553.641 142.242 539.839 136.844 528.512 125.963C518.725 116.561 507.376 110.85 493.675 108.814C474.625 105.983 457.914 111.147 442.338 121.314C436.257 125.283 431.069 130.662 424.87 134.395C412.956 141.57 400.117 144.397 385.966 142.128C370.22 139.603 357.935 131.524 346.529 121.115C339.141 114.374 329.85 110.917 320.207 109.02C304.232 105.875 288.827 108.741 274.645 116.274C267.454 120.093 261.376 125.974 254.665 130.74C242.722 139.22 229.46 143.866 214.717 142.93C201.587 142.096 189.71 137.447 179.593 128.96C169.694 120.655 159.971 112.72 146.663 109.726C131.044 106.211 116.161 107.675 102.303 114.617C92.7737 119.39 84.6087 126.83 75.6232 132.758C64.4035 140.161 51.9052 143.781 38.4892 142.907C24.8802 142.02 12.7959 136.641 2.02747 128.372C1.02659 127.604 0.180597 125.95 0.161672 124.694C0.0110645 114.698 0.13799 104.697 0.0474909 94.6989C0.0126049 90.8455 1.62381 90.6651 4.54637 92.1491C18.6236 99.2971 33.7057 102.489 49.2805 100.918C67.7296 99.0558 84.3555 92.2514 98.2629 79.3911C105.711 72.5036 114.606 68.5401 124.86 66.9479C139.957 64.6035 151.658 69.7963 162.636 79.8792C174.76 91.0149 189.404 97.6724 205.972 100.078C227.828 103.252 247.733 98.858 265.688 86.0079C271.477 81.8649 276.764 76.9808 282.732 73.137C298.597 62.9194 315.419 63.789 331.651 74.2518C342.171 81.0327 352.263 88.5122 363.023 94.8731C370.859 99.5052 379.897 100.677 389.049 101.078C405.823 101.813 421.6 98.5187 436.004 89.9187C442.075 86.2944 447.672 81.7945 453.159 77.2965C460.193 71.5309 468.224 68.6859 477.039 66.947C484.674 65.4408 492.022 65.821 498.763 69.1636C504.728 72.1211 510.403 75.9689 515.541 80.2265C528.197 90.7147 542.2 97.9151 558.632 100.041C559.729 100.183 560.774 100.729 562.315 101.087Z" fill="#FEFEFE"/>
<path d="M0.0833556 448C0.0833596 351.347 0.0829202 255.193 0.0842902 159.04C0.0843892 152.193 0.319447 152.3 6.51487 154.812C19.9415 160.254 33.7696 164.75 48.4846 162.985C65.4679 160.949 81.3322 155.506 94.4704 143.994C103.577 136.015 113.489 129.512 125.735 128.234C137.113 127.047 148.355 128.598 157.085 136.797C169.193 148.168 182.705 156.599 198.967 160.563C216.048 164.726 232.561 163.167 248.954 157.099C260.924 152.669 269.787 143.837 280.012 136.875C295.517 126.319 312.488 123.865 329.435 134.097C334.802 137.337 339.336 141.939 344.327 145.82C356.544 155.319 370.347 160.27 385.787 162.212C403.07 164.385 418.93 160.842 433.819 152.848C441.28 148.841 447.669 142.866 454.654 137.94C465.725 130.131 477.693 126.493 491.51 128.748C501.354 130.355 508.391 135.784 515.63 141.959C528.27 152.742 542.847 159.478 559.553 162.193C575.125 164.725 589.404 160.955 603.633 155.937C608.183 154.332 609.061 155.67 609.052 159.933C608.965 199.594 609 239.255 609 278.917C609 371.404 608.995 463.891 609.027 556.378C609.028 559.297 608.632 561.322 605.659 563.187C578.775 580.047 552.046 597.154 525.306 614.242C508.824 624.775 492.44 635.461 475.942 645.969C450.123 662.415 424.189 678.68 398.408 695.183C369.108 713.937 339.811 732.703 310.778 751.864C304.953 755.708 300.871 753.647 296.246 750.681C265.211 730.782 234.172 710.888 203.14 690.983C173.735 672.122 144.358 653.219 114.931 634.392C88.2046 617.293 61.4366 600.257 34.6693 583.221C24.535 576.77 14.4063 570.308 4.15728 564.044C1.14594 562.203 0.00117179 560.033 0.0125968 556.485C0.128503 520.49 0.0833556 484.495 0.0833556 448ZM119.962 300.68C120.306 301.908 120.6 303.151 120.999 304.361C133.141 341.244 145.294 378.124 157.423 414.937C162.657 414.937 167.626 414.937 172.772 414.937C174.539 408.373 176.273 401.915 178.015 395.459C184.172 372.639 190.34 349.823 196.487 327.001C203.004 302.806 209.47 278.596 216.064 254.421C216.666 252.212 218.032 250.212 219.043 248.114C219.596 248.258 220.148 248.401 220.7 248.544C220.8 250.252 220.987 251.959 220.988 253.667C221.004 290.831 221.139 327.997 220.909 365.16C220.847 375.135 220.176 385.172 218.827 395.049C217.814 402.472 212.556 412.277 202.636 413.061C200.352 413.242 198.127 414.163 195.51 414.837C196.205 415.539 196.308 415.739 196.442 415.762C197.072 415.868 197.713 415.912 198.346 416.002C208.018 417.369 215.4 421.929 217.875 431.804C219.512 438.333 220.788 445.142 220.863 451.841C221.186 480.336 221.173 508.838 220.92 537.334C220.811 549.659 222.404 561.71 225.046 573.653C227.596 585.177 233.152 595.244 242.325 602.685C257.702 615.158 276.346 618.198 295.337 618.912C304.102 619.241 313.029 618.261 321.719 616.862C333.577 614.953 344.638 610.484 353.412 601.969C364.609 591.1 368.282 576.646 368.794 561.974C369.689 536.341 369.007 510.653 369.021 484.988C369.022 483.458 369.329 481.928 369.493 480.398C369.922 480.287 370.351 480.177 370.78 480.066C371.845 481.748 373.025 483.368 373.956 485.122C382.323 500.889 394.194 513.029 410.267 521.078C428.184 530.05 447.107 533.368 467.055 533.141C485.34 532.932 500.625 525.778 513.973 514.337C528.78 501.645 538.043 485.246 542.704 466.289C539.177 464.878 539.314 464.939 537.953 468C533.408 478.229 529.378 488.658 522.14 497.549C508.946 513.755 493.759 523.512 471.333 520.232C452.405 517.464 441.961 505.664 434.359 490.411C427.29 476.23 425.899 460.349 425.2 444.767C424.6 431.401 425.355 417.934 426.209 404.556C426.985 392.414 428.181 380.245 430.164 368.248C431.889 357.809 435.313 347.601 442.879 339.751C455.033 327.14 470.535 326.896 485.923 330.658C505.151 335.36 516.517 349.959 524.678 366.727C529.561 376.761 532.302 387.838 535.596 397.271C535.596 376.188 535.596 353.811 535.596 331.288C531.995 337.473 528.565 343.363 525.605 348.447C521.417 344.705 517.827 341.106 513.846 338.01C501.158 328.143 485.908 325.806 470.642 325.169C460.824 324.759 450.782 326.342 441.041 328.123C417.747 332.383 397.242 341.915 382.238 361.212C370.639 376.131 365.298 393.362 363.11 411.75C362.73 414.942 361.971 416.161 358.717 416.054C352.974 415.863 347.22 416 341.471 416C350.68 418.48 357.169 424.209 359.772 432.985C362.087 440.788 363.689 449.093 363.816 457.204C364.282 486.862 364.244 516.535 363.862 546.195C363.737 555.909 362.803 565.773 360.815 575.269C356.217 597.231 337.767 611.076 314.576 607.292C291.675 603.556 280.62 583.782 280.253 566.071C279.462 527.925 280.034 489.749 280.141 451.585C280.155 446.523 280.35 441.41 281.091 436.414C282.365 427.825 287.442 417.901 299.037 416.97C301.101 416.804 303.103 415.88 305.134 415.305C304.209 414.261 303.328 413.858 302.493 413.937C293.828 414.755 284.206 407.961 282.822 399.388C281.594 391.774 279.239 384.182 279.172 376.565C278.809 335.07 278.919 293.57 279.089 252.073C279.114 246.103 279.922 240.051 281.119 234.19C282.829 225.824 286.512 218.681 295.912 216.565C297.43 216.223 298.949 215.881 300.467 215.538C275.549 215.001 250.726 215.017 225.903 214.976C223.331 214.972 222.385 215.717 221.828 218.558C220.48 225.445 218.356 232.181 216.528 238.973C210.348 261.934 204.189 284.901 197.954 307.847C196.482 313.263 194.743 318.606 193.126 323.983C192.56 324.011 191.995 324.039 191.429 324.067C180.185 287.779 168.942 251.491 157.706 215.226C129.233 215.226 100.863 215.226 72.4931 215.226C83.7971 217.238 91.5251 223.624 93.804 234.721C96.0126 245.475 97.9065 256.565 97.7772 267.481C97.3134 306.625 100.436 345.855 95.7721 384.893C95.0374 391.043 92.7623 397.342 89.785 402.8C86.6858 408.482 81.7545 413.061 74.577 413.695C91.5252 413.695 108.473 413.695 125.422 413.695C116.646 412.233 111.352 406.587 108.078 399.05C103.375 388.219 101.948 376.76 102.022 364.937C102.241 329.773 102.093 294.607 102.131 259.442C102.133 257.749 102.544 256.057 102.765 254.364C103.274 254.351 103.784 254.339 104.293 254.326C109.36 269.55 114.427 284.774 119.962 300.68ZM121.098 513.648C122.096 507.998 126.672 507.074 131.121 506.49C137.241 505.686 136.128 512.585 139.46 514.85C146.646 512.614 147.709 510.831 147 502.203C146.671 498.204 143.197 494.45 138.7 494.031C133.594 493.557 128.104 493.248 125.049 498.561C122.058 503.762 119.647 509.296 116.995 514.692C116.296 516.114 115.652 517.563 114.886 519.206C110.194 514.679 109.048 512.627 110.119 507.868C110.942 504.211 112.442 500.573 114.31 497.308C120.836 485.903 123.449 473.371 114.043 461.784C110.951 457.975 107.931 456.938 105.126 459.322C97.3865 465.902 93.1564 476.279 97.7274 487.26C99.7479 492.113 101.993 496.874 104.148 501.671C107.452 509.025 106.824 514.805 101.625 519.243C100.681 516.831 99.844 514.682 98.9983 512.536C96.256 505.577 94.4709 498.011 86.3488 494.796C79.5721 492.114 71.3344 495.024 69.4224 501.036C67.3287 507.621 69.5334 512.01 76.6896 515.057C77.463 513.928 78.359 512.794 79.0678 511.554C82.6411 505.3 91.0492 505.284 94.8459 511.568C96.6518 514.557 95.9909 516.952 93.1708 519.01C91.9611 519.893 91.0933 521.245 90.0701 522.384C91.5524 522.32 93.0769 522.003 94.5081 522.243C97.5864 522.759 100.617 523.562 103.667 524.247C102.749 526.665 101.601 529.025 100.985 531.517C100.474 533.582 99.6272 536.642 100.623 537.782C102.867 540.353 106.641 544.061 108.909 543.53C111.94 542.821 114.452 538.742 116.476 535.645C117.013 534.822 114.909 532.316 114.087 530.55C113.308 528.878 112.62 527.163 112.007 525.737C114.991 521.459 118.47 521.091 122.623 522.878C123.504 523.257 124.8 522.673 125.904 522.532C125.337 521.584 124.768 520.636 124.204 519.686C123.168 517.944 122.135 516.2 121.098 513.648Z" fill="white"/>
<path d="M245.994 317C245.994 293.007 245.963 269.515 246.063 246.023C246.07 244.427 246.63 242.059 247.72 241.442C249.024 240.703 251.85 240.805 252.776 241.754C253.761 242.762 253.43 245.19 253.421 246.996C253.412 248.788 252.929 250.579 252.927 252.37C252.897 293.69 252.648 335.013 253.057 376.329C253.183 389.04 255.271 401.69 260.13 413.689C260.68 415.049 260.155 416.963 259.803 418.548C257.899 427.132 254.32 435.669 254.19 444.265C253.586 484.408 253.894 524.565 253.978 564.718C253.985 568.074 254.75 571.429 255.336 576.197C250.063 571.859 249.756 566.846 249.044 562.213C242.921 522.317 247.599 482.129 245.765 442.126C245.384 433.839 241.978 425.7 240.101 417.463C239.751 415.927 239.553 414.044 240.118 412.662C243.822 403.612 246.011 394.293 246.001 384.479C245.979 362.152 245.994 339.826 245.994 317Z" fill="#FDFCFC"/>
<path d="M155.017 325.909C146.01 298.059 137.017 270.623 128.057 243.177C127.919 242.753 128.178 242.199 128.251 241.715C128.541 241.529 128.812 241.202 129.084 241.202C140.994 241.199 137.541 238.716 142.669 253.481C147.373 267.027 151.061 280.925 155.239 294.654C159.186 307.623 163.721 320.448 166.866 333.606C167.911 337.982 165.452 343.196 164.594 348.028C164.017 348.056 163.439 348.085 162.861 348.114C160.252 340.85 157.644 333.586 155.017 325.909Z" fill="#FEFDFD"/>
<path d="M399.008 411.028C399.008 423.184 398.538 434.868 399.141 446.497C399.73 457.85 401.414 469.146 402.604 480.345C387.709 466.18 381.914 406.87 400.781 380.893C400.161 391.257 399.584 400.895 399.008 411.028Z" fill="#FCFBFB"/>
</svg>
